<?xml version="1.0" standalone="no"?>
<!DOCTYPE svg PUBLIC "-//W3C//DTD SVG 20010904//EN"
 "http://www.w3.org/TR/2001/REC-SVG-20010904/DTD/svg10.dtd">
<svg version="1.0" xmlns="http://www.w3.org/2000/svg"
 width="225.000000pt" height="224.000000pt" viewBox="0 0 225.000000 224.000000"
 preserveAspectRatio="xMidYMid meet">

<g transform="translate(0.000000,224.000000) scale(0.100000,-0.100000)"
fill="#000000" stroke="none">
<path d="M1106 2192 c-8 -29 -23 -90 -32 -136 -12 -60 -20 -83 -29 -79 -9 3
-17 -13 -26 -50 -8 -39 -16 -54 -25 -50 -14 5 -20 -34 -17 -109 1 -24 -2 -26
-17 -18 -10 6 -21 10 -24 10 -10 0 -7 -97 4 -126 10 -27 10 -27 -14 -10 -16
10 -27 12 -31 6 -8 -13 3 -88 17 -112 10 -21 5 -22 -23 -8 -16 9 -19 7 -19
-15 0 -13 9 -47 19 -75 21 -54 20 -56 -11 -39 -20 11 -21 9 -15 -31 3 -24 15
-56 27 -72 21 -28 21 -28 0 -28 -25 0 -26 -20 0 -71 15 -33 16 -40 4 -35 -33
13 -25 -31 24 -126 2 -5 -3 -8 -12 -8 -20 0 -20 -3 4 -50 20 -40 29 -79 11
-51 -5 7 -13 11 -19 7 -5 -3 -17 15 -27 39 -18 50 -33 64 -45 45 -6 -10 -13
-3 -23 22 -17 41 -38 59 -45 38 -3 -8 -15 9 -28 38 -23 53 -40 65 -51 36 -4
-11 -14 -1 -35 35 -30 54 -42 61 -52 34 -6 -14 -10 -12 -25 13 -10 16 -26 36
-35 44 -16 12 -19 12 -27 -3 -8 -14 -14 -11 -45 23 -38 42 -54 50 -54 25 0
-21 -4 -20 -57 21 -26 20 -49 31 -51 26 -2 -6 -17 -2 -38 10 -19 11 -41 17
-50 14 -8 -3 -32 5 -52 18 -60 37 -143 77 -154 74 -5 -2 19 -44 55 -93 35 -50
61 -91 56 -93 -11 -4 14 -54 36 -72 13 -10 13 -15 3 -21 -9 -6 -1 -20 32 -54
31 -32 39 -45 27 -45 -9 0 -17 -4 -17 -9 0 -9 41 -46 76 -68 17 -11 17 -12 2
-12 -10 -1 -18 -7 -18 -13 0 -15 60 -58 81 -58 10 -1 9 -5 -5 -15 -20 -15 -20
-15 0 -30 10 -8 36 -20 57 -27 37 -11 38 -12 16 -24 -23 -12 -23 -12 11 -33
19 -11 46 -21 59 -21 19 0 21 -3 12 -14 -14 -17 4 -33 48 -42 23 -5 29 -10 21
-19 -13 -16 3 -29 57 -45 28 -9 40 -17 36 -26 -3 -8 1 -14 8 -14 8 -1 28 -7
44 -14 30 -13 30 -13 -15 -10 -25 2 -56 6 -69 10 -21 6 -23 4 -18 -11 6 -14 4
-16 -10 -10 -10 4 -31 10 -47 13 -22 3 -27 1 -21 -8 6 -10 0 -11 -29 -6 -29 6
-36 4 -36 -9 0 -13 -7 -15 -35 -9 -28 5 -35 3 -35 -10 0 -10 -9 -16 -23 -16
-13 0 -32 -7 -43 -15 -10 -8 -26 -15 -35 -15 -9 0 -22 -6 -28 -14 -6 -7 -29
-16 -51 -20 -21 -3 -51 -11 -67 -17 l-28 -12 40 -13 c22 -7 53 -13 68 -13 16
-1 35 -8 43 -16 9 -8 24 -15 35 -15 10 0 19 -4 19 -10 0 -5 16 -10 35 -10 26
0 35 -4 35 -16 0 -14 7 -15 40 -10 34 5 39 4 33 -10 -5 -14 -1 -16 30 -10 25
5 37 3 37 -5 0 -11 25 -8 66 8 12 4 15 3 10 -5 -10 -16 36 -16 52 0 10 10 15
10 21 -1 6 -10 13 -10 28 -3 11 6 29 9 40 6 12 -3 31 0 43 6 15 8 26 8 32 2 7
-7 3 -12 -11 -17 -12 -3 -19 -10 -16 -15 3 -5 -4 -11 -15 -15 -11 -3 -20 -13
-20 -21 0 -8 -7 -17 -16 -21 -8 -3 -13 -11 -11 -18 3 -6 -4 -17 -15 -24 -11
-7 -17 -15 -14 -18 3 -4 0 -13 -7 -22 -8 -9 -20 -32 -27 -51 -7 -19 -19 -42
-25 -50 -7 -8 -18 -26 -25 -39 l-12 -24 46 26 c25 14 60 28 78 32 18 4 38 12
45 17 7 5 17 7 22 4 5 -4 17 4 25 16 11 15 16 18 16 8 1 -11 5 -9 18 6 10 11
23 19 29 17 6 -2 14 5 18 16 4 12 12 18 21 14 7 -3 14 -1 14 5 0 5 23 33 50
61 28 28 50 55 50 60 0 5 7 11 15 15 8 3 15 15 15 26 0 11 4 20 8 20 5 0 13
17 20 38 11 36 11 36 6 -15 -7 -63 16 -323 27 -323 12 0 11 46 -2 155 -12 108
-3 255 14 215 39 -92 52 -117 73 -137 13 -12 24 -25 24 -29 0 -3 20 -27 45
-52 25 -25 45 -42 45 -38 0 5 9 -2 20 -15 10 -13 19 -20 20 -15 0 4 9 -2 20
-15 14 -17 20 -20 20 -9 1 12 3 12 14 -3 8 -10 22 -19 33 -21 10 -2 36 -11 56
-20 21 -8 38 -15 40 -14 1 0 21 -9 45 -21 47 -24 51 -21 23 17 -10 15 -28 48
-40 74 -11 26 -26 50 -31 53 -6 4 -8 10 -5 15 3 5 -3 15 -14 21 -10 7 -17 18
-14 26 3 7 -2 16 -11 19 -9 3 -13 10 -10 15 3 5 -6 14 -20 20 -14 7 -23 16
-20 21 3 4 -5 12 -17 16 -14 6 -18 11 -11 16 6 4 21 2 33 -4 11 -7 30 -9 42
-6 11 3 29 0 40 -6 15 -7 22 -7 28 3 6 11 11 11 21 1 16 -16 62 -16 52 0 -5 8
-2 9 10 5 41 -16 66 -19 66 -8 0 8 12 10 37 5 31 -6 35 -4 30 10 -6 14 -1 15
33 10 33 -5 40 -4 40 10 0 12 9 16 35 16 19 0 35 5 35 10 0 6 9 10 19 10 11 0
26 7 35 15 8 8 21 15 30 15 30 0 116 22 116 29 0 5 -28 14 -62 21 -35 7 -68
17 -75 22 -27 21 -89 48 -110 48 -13 0 -22 5 -21 13 2 8 -9 11 -34 10 -28 -2
-38 2 -38 13 0 12 -8 13 -36 8 -27 -5 -35 -4 -30 5 9 14 -28 15 -55 1 -15 -9
-19 -7 -19 6 0 12 -5 15 -22 10 -13 -4 -43 -8 -68 -10 -45 -3 -45 -3 -15 10
17 7 36 13 44 14 7 0 11 6 8 14 -4 10 7 17 37 25 41 10 83 41 57 41 -24 0 -9
18 21 24 43 9 61 25 47 42 -9 11 -7 14 12 14 13 0 40 10 59 21 34 21 34 21 11
33 -22 12 -21 13 16 24 21 6 47 18 58 26 20 15 20 15 0 30 -15 12 -16 15 -5
16 9 0 33 12 54 26 l39 27 -23 12 -23 12 24 13 c30 15 69 51 69 62 0 4 -8 8
-17 8 -12 0 -4 13 27 46 29 30 40 48 32 51 -8 3 -4 14 14 36 14 16 24 38 21
47 -2 9 16 44 42 78 60 80 85 122 71 122 -14 0 -104 -46 -150 -76 -21 -14 -44
-22 -53 -18 -9 3 -32 -4 -51 -15 -22 -14 -35 -18 -38 -10 -2 6 -24 -4 -51 -25
-53 -41 -57 -42 -57 -21 0 25 -17 17 -53 -26 -31 -36 -36 -39 -45 -23 -9 16
-12 16 -28 4 -9 -8 -25 -28 -35 -44 -15 -25 -19 -27 -25 -13 -10 28 -22 20
-54 -35 -16 -29 -30 -45 -30 -35 0 36 -32 16 -54 -35 -13 -29 -25 -46 -28 -38
-7 21 -28 3 -45 -38 -10 -25 -17 -32 -23 -22 -12 19 -27 5 -45 -45 -10 -24
-22 -42 -27 -39 -6 4 -14 0 -19 -7 -18 -28 -9 11 11 51 24 47 24 50 4 50 -9 0
-14 3 -12 8 50 96 57 139 22 125 -13 -5 -13 0 5 35 26 52 27 72 1 72 -21 0
-21 0 0 28 12 16 24 48 27 72 6 40 5 42 -15 31 -31 -17 -32 -15 -11 39 10 28
19 62 19 75 0 22 -3 24 -19 15 -28 -14 -33 -13 -23 8 14 24 25 99 17 112 -4 6
-15 4 -31 -6 -24 -17 -24 -17 -14 10 21 56 8 154 -15 116 -9 -15 -28 -12 -22
3 9 23 -8 122 -20 120 -6 -1 -14 14 -18 35 -9 46 -23 74 -35 67 -5 -3 -12 11
-15 32 -12 70 -45 205 -54 221 -7 12 -13 4 -25 -36z"/>
</g>
</svg>
